<svg xmlns="http://www.w3.org/2000/svg" version="1.1" xmlns:xlink="http://www.w3.org/1999/xlink" xmlns:svgjs="http://svgjs.dev/svgjs" width="750" height="515" viewBox="0 0 312 312" class="svg-animations " style="background: rgb(255, 240, 240);"><svg viewBox="0 0 129.9998779296875 135.0000762939453" width="75" height="75" style="fill: rgb(192, 99, 99);" x="118.5" y="90.51941680908203"><svg width="131" height="130" viewBox="0 0 131 130" xmlns="http://www.w3.org/2000/svg">
<path d="M119.053 28.9366L125.597 7.46739H125.598C125.855 6.61856 125.625 5.69688 124.997 5.06989C124.37 4.44291 123.448 4.2125 122.599 4.47186L101.131 11.0149C59.0545 -17.9005 -0.428108 13.5957 0.0712386 65.0212C0.0905299 82.2473 6.94219 98.7628 19.1235 110.945C31.3048 123.125 47.8195 129.977 65.047 129.997C116.471 130.491 147.969 71.0137 119.053 28.9368L119.053 28.9366ZM119.69 10.3781L115.497 24.1319C112.648 20.6241 109.444 17.4195 105.936 14.5707L119.69 10.3781ZM60.6047 66.7467L64.5101 65.556L63.3194 69.4613L60.6047 66.7467ZM61.7333 74.6647L50.4297 111.748L18.3151 79.6362L55.4012 68.3326L61.7333 74.6647ZM69.8186 60.2475C69.1916 59.6195 68.2688 59.3891 67.42 59.6495L56.7573 62.8991L45.9047 52.0465L82.9909 40.7429L89.3238 47.0758L78.0191 84.1592L67.1676 73.3077L70.4183 62.6439H70.4194C70.6776 61.7951 70.4461 60.8734 69.8192 60.2464L69.8186 60.2475ZM88.1948 39.1567L92.1001 37.966L90.9094 41.8713L88.1948 39.1567ZM97.4086 32.6586H97.4075C96.7805 32.0306 95.8578 31.8001 95.0089 32.0595L84.3462 35.3102L73.4937 24.4576L100.292 16.2898C105.469 20.0453 110.021 24.5967 113.776 29.7743L105.608 56.57L94.7568 45.7186L98.0075 35.0548V35.0558C98.2658 34.207 98.0354 33.2853 97.4073 32.6583L97.4086 32.6586ZM65.0471 125.194C49.0932 125.176 33.7995 118.83 22.5175 107.549C11.2364 96.268 4.89059 80.9732 4.87248 65.0196C4.23052 19.4007 56.0967 -10.4037 95.0238 12.8762L68.2687 21.0323C67.4691 21.2863 66.8583 21.9369 66.6557 22.7514C66.4521 23.5648 66.6857 24.4265 67.272 25.0257L79.1427 36.8964L40.6793 48.6212V48.6222C39.8733 48.8687 39.256 49.5193 39.0524 50.337C38.8487 51.1548 39.0877 52.0197 39.6836 52.6156L51.5555 64.4863L13.092 76.2111H13.091C12.2914 76.4661 11.6816 77.1167 11.4791 77.9301C11.2754 78.7436 11.5091 79.6042 12.0942 80.2044L49.8635 117.974C50.4637 118.561 51.3243 118.794 52.1388 118.591C52.9534 118.387 53.6039 117.776 53.8579 116.976L65.5816 78.5152L77.4523 90.3848C78.0482 90.9818 78.9142 91.2208 79.7319 91.0172C80.5507 90.8125 81.2013 90.1941 81.4478 89.3881L93.1715 50.9274L105.042 62.7971C105.642 63.3844 106.503 63.618 107.318 63.4144C108.132 63.2108 108.783 62.5999 109.037 61.7993L117.192 35.0475C140.473 73.9828 110.66 125.841 65.0482 125.199L65.0471 125.194Z"></path>
</svg></svg><text fill="#ad2d2d" font-family="Audiowide" font-size="38px" x="63.30509948730469" y="202.8786392211914"><tspan dy="0" x="63.30509948730469">CageFlix</tspan></text><text fill="#641717" font-family="Syne" font-size="19px" x="156" y="221.48058319091797"><tspan dy="0" x="156"></tspan></text></svg>